HIERARCHY
ROOT Hips
{
	OFFSET 0.000000 0.000000 0.000000 
	CHANNELS 6 Xposition Yposition Zposition Yrotation Zrotation Xrotation 
	JOINT Lumbar
	{
		OFFSET 0.000000 0.000000 0.000000 
		CHANNELS 3 Zrotation Xrotation Yrotation
		JOINT Neck
		{
			OFFSET 0.000000 0.445665 0.000000 
			CHANNELS 3 Zrotation Xrotation Yrotation
			End Site
			{
				OFFSET 0.000000 0.227535 0.000000 
			}
		}
		JOINT RightShoulder
		{
			OFFSET 0.019635 0.377685 0.194865 
			CHANNELS 3 Zrotation Xrotation Yrotation
			JOINT RightElbow
			{
				OFFSET 0.000000 -0.243375 0.000000 
				CHANNELS 2 Zrotation Yrotation
				JOINT RightWrist
				{
					OFFSET 0.000000 -0.264825 0.000000 
					CHANNELS 2 Zrotation Xrotation
					End Site
					{
						OFFSET 0.006600 -0.176220 0.000990 
					}
				}
			}
		}
		JOINT LeftShoulder
		{
			OFFSET 0.019635 0.377685 -0.194865 
			CHANNELS 3 Zrotation Xrotation Yrotation
			JOINT LeftElbow
			{
				OFFSET 0.000000 -0.243375 0.000000 
				CHANNELS 2 Zrotation Yrotation
				JOINT LeftWrist
				{
					OFFSET 0.000000 -0.264825 0.000000 
					CHANNELS 2 Zrotation Xrotation
					End Site
					{
						OFFSET 0.006600 -0.176220 -0.000990 
					}
				}
			}
		}
	}
	JOINT RightHip
	{
		OFFSET 0.052140 -0.069960 0.075570 
		CHANNELS 3 Zrotation Xrotation Yrotation
		JOINT RightKnee
		{
			OFFSET 0.000000 -0.402270 0.000000 
			CHANNELS 1 Zrotation
			JOINT RightAnkle
			{
				OFFSET 0.000000 -0.404085 0.000000 
				CHANNELS 3 Zrotation Xrotation Yrotation
				End Site
				{
					OFFSET 0.204105 -0.089430 0.008415 
				}
			}
		}
	}
	JOINT LeftHip
	{
		OFFSET 0.052140 -0.069960 -0.075570 
		CHANNELS 3 Zrotation Xrotation Yrotation
		JOINT LeftKnee
		{
			OFFSET 0.000000 -0.402270 0.000000 
			CHANNELS 1 Zrotation
			JOINT LeftAnkle
			{
				OFFSET 0.000000 -0.404085 0.000000 
				CHANNELS 3 Zrotation Xrotation Yrotation
				End Site
				{
					OFFSET 0.204105 -0.089430 -0.008415 
				}
			}
		}
	}
}
MOTION
Frames: 11
Frame Time: 0.02
-0 0.95578 0 174.77954 0 -4.23899 5.71011 4.7251 -2.20882 -27.08948 3.88135 5.02572 27.99145 -74.77379 -56.86768 26.49891 64.26375 -27.69771 -0.40537 24.22832 65.47036 65.15016 19.09174 -83.21431 -25.76982 3.3294 -2.15404 3.44591 -5.21101 -8.02653 2.93351 -4.28325 -9.15346 -2.51559 8.10283 5.66395 -5.66797 5.15018 4.77616 8.33725
0.00012 0.95579 -5e-05 174.80435 0 -4.23737 5.70153 4.70783 -2.10501 -26.94439 3.73633 4.88884 27.48908 -74.5627 -57.30728 26.49831 64.30261 -27.70832 -0.42483 24.20915 65.73479 64.93726 19.07642 -83.07846 -25.86552 3.31326 -2.1391 3.44729 -5.21354 -8.05011 2.93563 -4.2887 -9.16378 -2.49409 8.10521 5.62615 -5.68457 5.14972 4.75792 8.34733
0.00025 0.9558 -0.0001 174.82912 0 -4.23576 5.69299 4.69055 -2.00168 -26.80022 3.59154 4.75238 26.99003 -74.35187 -57.74416 26.49777 64.34168 -27.71835 -0.44417 24.19041 65.99849 64.72463 19.06117 -82.94337 -25.96061 3.29704 -2.12413 3.44865 -5.21608 -8.07371 2.93776 -4.29412 -9.17412 -2.47259 8.10757 5.58823 -5.70115 5.14922 4.73989 8.35757
0.00037 0.95581 -0.00015 174.85428 0 -4.23417 5.68456 4.67302 -1.89944 -26.6577 3.44632 4.61624 26.49868 -74.14012 -58.17532 26.49741 64.38136 -27.72669 -0.46314 24.17257 66.26213 64.51078 19.04631 -82.81009 -26.05458 3.28045 -2.10899 3.45001 -5.21893 -8.09753 2.93992 -4.29949 -9.18466 -2.45089 8.10988 5.54903 -5.71779 5.14855 4.72259 8.36875
0.00049 0.95582 -0.00021 174.87769 0 -4.23246 5.6756 4.65675 -1.79162 -26.50573 3.30345 4.47836 25.96567 -73.93344 -58.63786 26.49603 64.41698 -27.74462 -0.48395 24.14917 66.52645 64.30318 19.02967 -82.66731 -26.15489 3.26592 -2.09487 3.45144 -5.22044 -8.12007 2.94189 -4.30515 -9.19417 -2.43025 8.11246 5.5161 -5.73409 5.14872 4.70152 8.37518
0.00062 0.95582 -0.00025 174.90456 0 -4.23101 5.66773 4.63787 -1.69555 -26.37436 3.15569 4.34432 25.52192 -73.7161 -59.03284 26.49686 64.46174 -27.74181 -0.50091 24.13809 66.78883 64.08269 19.01663 -82.54471 -26.2414 3.24699 -2.0785 3.45269 -5.22458 -8.14536 2.94425 -4.31019 -9.20584 -2.40739 8.11445 5.47027 -5.75112 5.14715 4.68839 8.3915
0.00081 0.95583 -0.00025 174.94402 0 -4.23025 5.66315 4.61067 -1.63189 -26.2947 2.99026 4.2173 25.31664 -73.46263 -59.25121 26.50357 64.53032 -27.68329 -0.50711 24.15772 67.0545 63.81723 19.01519 -82.47716 -26.29348 3.21564 -2.05614 3.45371 -5.23805 -8.17855 2.94785 -4.31345 -9.2241 -2.37753 8.11494 5.38346 -5.7704 5.1404 4.69816 8.43773
0.00101 0.95584 -0.00024 174.98648 0 -4.22975 5.65963 4.58103 -1.58001 -26.23683 2.82043 4.09463 25.20301 -73.19895 -59.3996 26.51248 64.60929 -27.60348 -0.50963 24.19058 67.31669 63.53961 19.01723 -82.43014 -26.33117 3.17999 -2.03144 3.45452 -5.25383 -8.21448 2.95182 -4.31611 -9.24445 -2.34553 8.1148 5.28448 -5.79042 5.13195 4.71579 8.49353
0.00121 0.95585 -0.00024 175.02561 0 -4.22915 5.65545 4.55318 -1.52268 -26.17211 2.65521 3.97222 25.05209 -72.94445 -59.574 26.52063 64.68353 -27.53233 -0.51374 24.2194 67.57548 63.27408 19.01638 -82.37399 -26.37287 3.14633 -2.00762 3.45528 -5.26714 -8.249 2.95552 -4.31909 -9.26349 -2.31504 8.11486 5.19451 -5.80995 5.12451 4.72919 8.54329
0.00141 0.95586 -0.00024 175.07294 0 -4.22847 5.652 4.52239 -1.46579 -26.09401 2.47923 3.84064 24.88168 -72.67238 -59.77354 26.5281 64.75452 -27.4655 -0.51755 24.2393 67.85618 62.98328 19.02042 -82.31661 -26.42448 3.11208 -1.98458 3.45667 -5.28629 -8.28425 2.95963 -4.32184 -9.28406 -2.28237 8.1153 5.09006 -5.83007 5.11606 4.7453 8.60011
0.00161 0.95587 -0.00022 175.10405 0 -4.22802 5.64732 4.49721 -1.41074 -26.04959 2.32431 3.7289 24.77506 -72.43253 -59.9032 26.53709 64.83887 -27.38459 -0.52189 24.28165 68.08922 62.7392 19.0159 -82.26717 -26.45297 3.07856 -1.95937 3.45667 -5.29405 -8.31858 2.96302 -4.32494 -9.30191 -2.25364 8.11479 5.01263 -5.8492 5.10934 4.75771 8.64458
